# xmcd
#
# Track frame offsets:
# 150
# 21023
# 40967
# 59964
# 78689
# 94038
# 110075
# 128065
# 148236
# 167071
# 184475
# 200612
# 214048
# 231352
# 244827
#
# Disc length: 3511 seconds
#
#
# Revision: 5
# Processed by: cddbd v1.5.2PL0 Copyright (c) Steve Scherf et al.
# Submitted via: FreeRIP 2.951 
#
DISCID=e90db50f
DTITLE=Rick and Renner - Instante Mágico
DYEAR=2002
DGENRE=Sertanejo
TTITLE0=Instante mágico
TTITLE1=Assim é o nosso amor
TTITLE2=Cara de pau
TTITLE3=Perigo
TTITLE4=Na pontinha do pé
TTITLE5=Vem me namorar
TTITLE6=Fim de semana
TTITLE7=Como esquecer tanto amor
TTITLE8=Minha vida clareou
TTITLE9=Quando o sol se pôr
TTITLE10=Muleca
TTITLE11=Sofro e choro
TTITLE12=Paixão de peão
TTITLE13=Que nem chiclete
TTITLE14=No momento em que te amei
EXTD=DJ Jemelly Rustom
EXTT0=DJ Jemelly Rustom
EXTT1=DJ Jemelly Rustom
EXTT2=DJ Jemelly Rustom
EXTT3=DJ Jemelly Rustom
EXTT4=DJ Jemelly Rustom
EXTT5=DJ Jemelly Rustom
EXTT6=DJ Jemelly Rustom
EXTT7=DJ Jemelly Rustom
EXTT8=DJ Jemelly Rustom
EXTT9=DJ Jemelly Rustom
EXTT10=DJ Jemelly Rustom
EXTT11=DJ Jemelly Rustom
EXTT12=DJ Jemelly Rustom
EXTT13=DJ Jemelly Rustom
EXTT14=
PLAYORDER=
